{"title":"Women of Ninja Warrior (Kunoichi) 4-6","uid":11813689,"size":1623220587,"categoryP":"video","categoryS":"tv_shows","magnet":"?xt=urn:btih:9f56208851044f4df521da5d034c690d66272fff&amp;dn=Women+of+Ninja+Warrior+%28Kunoichi%29+4-6&amp;tr=udp%3A%2F%2Ftracker.openbittorrent.com%3A80&amp;tr=udp%3A%2F%2Fopen.demonii.com%3A1337&amp;tr=udp%3A%2F%2Ftracker.coppersurfer.tk%3A6969&amp;tr=udp%3A%2F%2Fexodus.desync.com%3A6969","seeders":1,"leechers":0,"uploader":"orangebirds","files":9,"time":1428997322,"description":"Women of Ninja Warrior (Kunoichi) 4th-6th Tournament\nMore tournament will be uploaded later\nThanks to W4F and BBboxer44 (Youtube)\n\nGeneral\nComplete name                            : E:Women of Ninja Warrior 4-6Kunoichi 4women.of.ninja.warrior.s04e01.pdtv.x264-w4f.mp4\nFormat                                   : MPEG-4\nFormat profile                           : Base Media\nCodec ID                                 : isom\nFile size                                : 191 MiB\nDuration                                 : 20mn 59s\nOverall bit rate mode                    : Variable\nOverall bit rate                         : 1 275 Kbps\nEncoded date                             : UTC 2013-07-24 09:44:03\nTagged date                              : UTC 2013-07-24 09:44:03\n\nVideo\nID                                       : 1\nFormat                                   : AVC\nFormat/Info                              : Advanced Video Codec\nFormat profile                           : &lt;a class=&quot;__cf_email__&quot; href=&quot;/cdn-cgi/l/email-protection&quot; data-cfemail=&quot;1d55747a755d512e332c&quot;&gt;[email&amp;#160;protected]&lt;/a&gt;&lt;script cf-hash='f9e31' type=&quot;text/javascript&quot;&gt;\n/* &lt;![CDATA[ */!function(){try{var t=&quot;currentScript&quot;in document?document.currentScript:function(){for(var t=document.getElementsByTagName(&quot;script&quot;),e=t.length;e--;)if(t[e].getAttribute(&quot;cf-hash&quot;))return t[e]}();if(t&amp;&amp;t.previousSibling){var e,r,n,i,c=t.previousSibling,a=c.getAttribute(&quot;data-cfemail&quot;);if(a){for(e=&quot;&quot;,r=parseInt(a.substr(0,2),16),n=2;a.length-n;n+=2)i=parseInt(a.substr(n,2),16)^r,e+=String.fromCharCode(i);e=document.createTextNode(e),c.parentNode.replaceChild(e,c)}}}catch(u){}}();/* ]]&gt; */&lt;/script&gt;\nFormat settings, CABAC                   : Yes\nFormat settings, ReFrames                : 5 frames\nCodec ID                                 : avc1\nCodec ID/Info                            : Advanced Video Coding\nDuration                                 : 20mn 59s\nBit rate                                 : 1 162 Kbps\nMaximum bit rate                         : 2 984 Kbps\nWidth                                    : 640 pixels\nHeight                                   : 480 pixels\nDisplay aspect ratio                     : 4:3\nFrame rate mode                          : Constant\nFrame rate                               : 25.000 fps\nColor space                              : YUV\nChroma subsampling                       : 4:2:0\nBit depth                                : 8 bits\nScan type                                : Progressive\nBits/(Pixel*Frame)                       : 0.151\nStream size                              : 175 MiB (91%)\nTitle                                    : Video\nWriting library                          : x264 core 135 r2345 f0c1c53\nEncoding settings                        : cabac=1 / ref=5 / deblock=1:0:0 / analyse=0x3:0x113 / me=umh / subme=8 / psy=1 / psy_rd=1.00:0.00 / mixed_ref=1 / me_range=16 / chroma_me=1 / trellis=1 / 8x8dct=1 / cqm=0 / deadzone=21,11 / fast_pskip=1 / chroma_qp_offset=-2 / threads=12 / lookahead_threads=2 / sliced_threads=0 / nr=0 / decimate=1 / interlaced=0 / bluray_compat=0 / constrained_intra=0 / bframes=3 / b_pyramid=2 / b_adapt=2 / b_bias=0 / direct=3 / weightb=1 / open_gop=0 / weightp=2 / keyint=250 / keyint_min=25 / scenecut=40 / intra_refresh=0 / rc_lookahead=50 / rc=crf / mbtree=1 / crf=24.0 / qcomp=0.60 / qpmin=0 / qpmax=69 / qpstep=4 / ip_ratio=1.40 / aq=1:1.00\nEncoded date                             : UTC 2013-07-24 09:44:03\nTagged date                              : UTC 2013-07-24 09:44:05\n\nAudio\nID                                       : 2\nFormat                                   : AAC\nFormat/Info                              : Advanced Audio Codec\nFormat profile                           : LC\nCodec ID                                 : 40\nDuration                                 : 20mn 59s\nBit rate mode                            : Variable\nBit rate                                 : 108 Kbps\nMaximum bit rate                         : 137 Kbps\nChannel(s)                               : 2 channels\nChannel positions                        : Front: L R\nSampling rate                            : 48.0 KHz\nCompression mode                         : Lossy\nStream size                              : 16.3 MiB (9%)\nEncoded date                             : UTC 2013-07-24 09:44:05\nTagged date                              : UTC 2013-07-24 09:44:05","torrent":{"xt":"urn:btih:9f56208851044f4df521da5d034c690d66272fff","amp;dn":"Women+of+Ninja+Warrior+%28Kunoichi%29+4-6","amp;tr":["udp%3A%2F%2Ftracker.openbittorrent.com%3A80","udp%3A%2F%2Fopen.demonii.com%3A1337","udp%3A%2F%2Ftracker.coppersurfer.tk%3A6969","udp%3A%2F%2Fexodus.desync.com%3A6969"],"infoHash":"9f56208851044f4df521da5d034c690d66272fff","infoHashBuffer":{"type":"Buffer","data":[159,86,32,136,81,4,79,77,245,33,218,93,3,76,105,13,102,39,47,255]},"announce":[],"urlList":[]}}